<svg id="SvgjsSvg1011" width="288" height="288" xmlns="http://www.w3.org/2000/svg" version="1.1" xmlns:xlink="http://www.w3.org/1999/xlink" xmlns:svgjs="http://svgjs.com/svgjs"><defs id="SvgjsDefs1012"></defs><g id="SvgjsG1013"><svg xmlns="http://www.w3.org/2000/svg" width="288" height="288" viewBox="0 0 20 20"><path fill="#5077fb" fill-rule="evenodd" d="M334 2011c3.785 0 6.958 2.214 7.784 6h-15.568c.826-3.786 3.999-6 7.784-6m-4-6c0-2.206 1.794-4 4-4s4 1.794 4 4-1.794 4-4 4-4-1.794-4-4m7.758 4.673A5.983 5.983 0 0 0 340 2005a6 6 0 1 0-9.758 4.673c-3.659 1.375-6.242 4.772-6.242 9.327h20c0-4.555-2.583-7.952-6.242-9.327" transform="translate(-324 -1999)" class="color000 svgShape"></path></svg></g></svg>