<svg version="1.2" xmlns="http://www.w3.org/2000/svg" viewBox="0 0 72 27" width="72" height="27"><style>.a{fill:#fff}</style><path fill-rule="evenodd" class="a" d="m0.7 26.7l0.1-0.3 16.2-16.2 4.5 4.5 14.7-14.8 14.7 14.8 4.5-4.5 16.2 16.2v0.3h-35.4zm51.5-10.7l4.7 4.7c-0.1 0.1 0.7 0.6 1.1 1l0.4 0.4-0.2 0.1q0.1 0.1 0.3 0c0.3 0 0.4-1.2 0.7-1.6 2.4 3.4 0-1.4 1.7-0.4-0.7-1.2 0.1-1.4-1-2.2-1 0.3-3.1-3.3-3.5-4.1 0 0-1 0.6-1 0.6-0.3-0.3 0.1-1.1-0.7-0.9-1.6 1.2-2.5 2.4-2.5 2.4zm-45.8 6.7q0.2 0.3 0.5 0.5c0.2-0.2 1.5-1.3 1.7-1.4 1.1-0.5 0.8 0.9-0.9 1.9 0.2-0.1 1.6 0.2 1.6 0.3q0.1 0 0.1 0c0.1-0.1 0.3-0.2 0.4-0.3q0 0.1 0 0.2c-0.4 1.2 1.4-1.2 5.9-0.8 0.4 0.1-1.6 1.7-1.5 1.9 1.4-1.3 2.4-1.4 3.6-2.7 0.6 0.6-0.3-1.1 2.6-1 0.4-0.1 0.1 0.5 0.4 0.4 0.4-0.3 0.6-0.9 1.1-1.2-1.3-2.1-4-3.6-3.6-7.5 0 0-0.7 0-0.7 0-0.3-0.3-0.2-0.6-1-0.4-1.1 0.9-10.2 10.1-10.2 10.1zm1.3 1q0 0 0 0 0 0 0 0zm18.1-10.2q0.2 0.2 0.4 0.4c0.2-0.2 1.5-1.3 1.7-1.3 1.1-0.6 0.8 0.9-0.8 1.9 0.1-0.1-0.4 2.9-0.3 3q0.1 0 0.1 0c0.1 0 0.3-0.2 0.4-0.2q0 0.1 0 0.2c-0.4 1.2 1.9-1.8 5.6-2.8 0.4 0.1 0.5 0.8 0.7 1 1.3-1.2 2.3-1.3 3.5-2.6 0.6 0.6-0.3-1.1 2.7-1.1 0.3 0 0 0.6 0.3 0.4 0.5-0.3 0.6-0.9 1.1-1.1-1.2-2.1-4-3.6-3.5-7.6-0.1 0-0.7 0.1-0.8 0-0.2-0.3-0.1-0.5-1-0.3-1.1 0.9-10.1 10.1-10.1 10.1zm1.3 1q0 0 0 0 0 0 0 0z"/></svg>